<?xml version="1.0" ?><svg viewBox="0 0 64 64" xmlns="http://www.w3.org/2000/svg"><title/><g data-name="Layer 9" id="Layer_9"><path d="M54,45.22a10,10,0,0,1,6.08,2.07A32,32,0,1,0,45.83,60.86,10,10,0,0,1,54,45.22ZM42.43,37.36l-.26-.54a3.51,3.51,0,0,0-3.18-2H24.84a3.52,3.52,0,0,0-3.18,2l-.26.55a6.56,6.56,0,0,1-8.74,3.1l-.58-.27A6.56,6.56,0,0,1,9,31.46l5.5-11.54a6.76,6.76,0,0,1,6.11-3.86H43.24a6.76,6.76,0,0,1,6.11,3.86l5.49,11.53a6.56,6.56,0,0,1-3.1,8.74l-.58.27A6.54,6.54,0,0,1,42.43,37.36Zm1.49-15.71a1.55,1.55,0,1,1-1.55-1.55A1.54,1.54,0,0,1,43.92,21.65Zm0,6.38a1.55,1.55,0,1,1-1.55-1.55A1.54,1.54,0,0,1,43.92,28Zm3.19-3.19a1.55,1.55,0,1,1-1.55-1.55A1.55,1.55,0,0,1,47.11,24.84Zm-6.38,0a1.55,1.55,0,1,1-1.55-1.55A1.56,1.56,0,0,1,40.73,24.84ZM25.05,24v1.68a.71.71,0,0,1-.71.71H22.56a.71.71,0,0,0-.71.71v1.77a.7.7,0,0,1-.7.71H19.47a.71.71,0,0,1-.71-.71V27.1a.71.71,0,0,0-.71-.71H16.27a.71.71,0,0,1-.71-.71V24a.71.71,0,0,1,.71-.71h1.78a.71.71,0,0,0,.71-.71V20.81a.71.71,0,0,1,.71-.71h1.68a.7.7,0,0,1,.7.71v1.77a.71.71,0,0,0,.71.71h1.78A.71.71,0,0,1,25.05,24ZM54,49a6.24,6.24,0,1,0,6.24,6.23A6.24,6.24,0,0,0,54,49Zm.73,10.42-.15.12-.19.1-.19,0a.68.68,0,0,1-.2,0,1,1,0,0,1-.73-.29,1.05,1.05,0,0,1,0-1.47,1.05,1.05,0,0,1,.93-.28.6.6,0,0,1,.19.06.7.7,0,0,1,.19.1l.15.12a1.05,1.05,0,0,1,0,1.47Zm.3-3.7a1,1,0,0,1-2.06,0V52.1a1,1,0,1,1,2.06,0Z"/></g></svg>